<svg width="73" height="75" viewBox="0 0 73 75" fill="none" xmlns="http://www.w3.org/2000/svg">
<path d="M10.6043 10.6867C11.4612 10.8423 12.6635 11.2362 14.197 11.9101C17.439 13.3349 21.5182 15.7201 25.6897 18.4372C34.0799 23.902 42.1952 30.2765 43.8069 31.8882C45.9425 34.0237 46.0748 38.7054 42.3489 42.4313C38.623 46.1572 33.9413 46.0249 31.8057 43.8894C30.194 42.2777 23.8195 34.1623 18.3547 25.7722C15.6377 21.6007 13.2524 17.5215 11.8276 14.2794C11.1537 12.746 10.7598 11.5437 10.6043 10.6867ZM10.5341 9.87241C10.5363 9.85396 10.5385 9.84567 10.539 9.84613C10.5395 9.84659 10.5384 9.85582 10.5341 9.87241ZM9.78994 10.6166C9.77336 10.6208 9.76413 10.622 9.76367 10.6214C9.7632 10.6209 9.77149 10.6188 9.78994 10.6166Z" stroke="white" stroke-width="6"/>
<path d="M57.8853 55.3154C58.5427 57.2394 59.6899 59.2225 61.5725 61.3183C58.3334 61.9154 54.4636 62.0204 50.9501 61.57C47.014 61.0654 44.2145 59.9532 42.9884 58.7271C39.3632 55.1019 39.363 49.2089 43.0072 45.5647C46.6515 41.9205 52.5445 41.9207 56.1696 45.5459C57.1055 46.4817 57.105 47.0588 57.1031 49.2315C57.1029 49.5245 57.1026 49.8466 57.1046 50.2025C57.1125 51.6112 57.2132 53.3486 57.8853 55.3154Z" stroke="white" stroke-width="6"/>
</svg>
