<svg width="800" height="800" viewBox="0 0 800 800" fill="none" xmlns="http://www.w3.org/2000/svg">
<g clip-path="url(#clip0_70_15)">
<path fill-rule="evenodd" clip-rule="evenodd" d="M0 0V800H800V0H0ZM620.222 287.049C620.438 291.924 620.549 296.826 620.549 301.748C620.549 451.907 506.259 625.046 297.255 625.046C233.087 625.046 173.359 606.238 123.075 573.992C131.965 575.049 141.007 575.587 150.182 575.587C203.418 575.587 252.411 557.422 291.302 526.94C241.579 526.027 199.613 493.175 185.152 448.03C192.093 449.361 199.212 450.075 206.534 450.075C216.897 450.075 226.936 448.679 236.471 446.087C184.492 435.645 145.322 389.723 145.322 334.671C145.322 334.191 145.322 333.714 145.333 333.24C160.651 341.749 178.17 346.862 196.798 347.453C166.307 327.077 146.252 292.295 146.252 252.877C146.252 232.051 151.856 212.535 161.639 195.749C217.679 264.498 301.407 309.732 395.842 314.476C393.902 306.156 392.893 297.482 392.893 288.578C392.893 225.83 443.773 174.956 506.521 174.956C539.205 174.956 568.737 188.753 589.463 210.834C615.342 205.744 639.662 196.283 661.618 183.263C653.136 209.799 635.119 232.062 611.657 246.127C634.644 243.379 656.542 237.269 676.92 228.232C661.69 251.017 642.426 271.031 620.222 287.049Z" fill="white"/>
</g>
<defs>
<clipPath id="clip0_70_15">
<rect width="800" height="800" fill="white"/>
</clipPath>
</defs>
</svg>
