<svg width="817" height="800" viewBox="0 0 817 800" fill="none" xmlns="http://www.w3.org/2000/svg">
<path d="M408.249 0C182.808 0 0 183.617 0 410.126C0 591.333 116.975 745.065 279.186 799.296C299.588 803.091 307.081 790.399 307.081 779.565C307.081 769.787 306.7 737.477 306.527 703.208C192.948 728.017 168.983 654.818 168.983 654.818C150.412 607.413 123.654 594.81 123.654 594.81C86.6158 569.354 126.446 569.875 126.446 569.875C167.443 572.77 189.029 612.141 189.029 612.141C225.44 674.841 284.533 656.713 307.83 646.236C311.493 619.725 322.075 601.636 333.749 591.394C243.073 581.021 147.748 545.854 147.748 388.707C147.748 343.932 163.697 307.344 189.814 278.624C185.575 268.292 171.602 226.58 193.768 170.088C193.768 170.088 228.05 159.065 306.066 212.128C338.628 203.038 373.554 198.483 408.249 198.329C442.944 198.483 477.895 203.038 510.521 212.128C588.444 159.065 622.678 170.088 622.678 170.088C644.899 226.58 630.92 268.292 626.68 278.624C652.855 307.344 668.695 343.929 668.695 388.707C668.695 546.227 573.191 580.915 482.285 591.066C496.926 603.794 509.974 628.754 509.974 667.015C509.974 721.889 509.5 766.056 509.5 779.565C509.5 790.479 516.848 803.268 537.545 799.241C699.666 744.949 816.494 591.272 816.494 410.126C816.494 183.617 633.712 0 408.249 0Z" fill="white"/>
<path d="M152.906 584.241C152.01 586.277 148.814 586.888 145.91 585.492C142.948 584.154 141.283 581.375 142.244 579.33C143.125 577.232 146.32 576.647 149.275 578.056C152.243 579.391 153.934 582.196 152.906 584.241ZM172.988 602.241C171.041 604.055 167.234 603.212 164.65 600.347C161.98 597.487 161.481 593.666 163.456 591.823C165.464 590.012 169.155 590.858 171.832 593.72C174.502 596.612 175.021 600.411 172.985 602.244M186.765 625.272C184.262 627.018 180.17 625.381 177.643 621.733C175.143 618.089 175.143 613.714 177.698 611.961C180.234 610.208 184.262 611.785 186.823 615.403C189.32 619.112 189.32 623.486 186.762 625.275M210.062 651.946C207.824 654.423 203.059 653.76 199.569 650.377C196.003 647.07 195.007 642.377 197.251 639.897C199.515 637.414 204.308 638.112 207.824 641.467C211.368 644.767 212.447 649.495 210.062 651.946ZM240.172 660.953C239.189 664.163 234.597 665.623 229.974 664.259C225.357 662.854 222.334 659.09 223.266 655.845C224.227 652.612 228.837 651.091 233.496 652.551C238.107 653.95 241.132 657.685 240.172 660.953ZM274.444 664.771C274.559 668.155 270.637 670.959 265.783 671.02C260.9 671.127 256.953 668.389 256.901 665.063C256.901 661.647 260.734 658.868 265.614 658.788C270.467 658.691 274.444 661.409 274.444 664.771ZM308.108 663.474C308.691 666.775 305.316 670.165 300.497 671.065C295.759 671.934 291.372 669.898 290.767 666.627C290.178 663.243 293.617 659.856 298.346 658.978C303.174 658.135 307.493 660.12 308.108 663.474Z" fill="white"/>
</svg>
